<svg id="Layer_1" data-name="Layer 1" xmlns="http://www.w3.org/2000/svg" viewBox="0 0 200 200"><defs><style>.cls-1{fill:#503e89;}</style></defs><title>ballotAPI-logo-final</title><path class="cls-1" d="M53.69,105a17.9,17.9,0,0,1-.81,5.33A15,15,0,0,1,50.51,115a11.84,11.84,0,0,1-3.91,3.32,11.29,11.29,0,0,1-5.42,1.26,12.43,12.43,0,0,1-4.85-1,7.92,7.92,0,0,1-3.5-2.64h-.1v2.87H21.87V79.36H33.94V93.57H34a7.73,7.73,0,0,1,3.18-2.17,11.13,11.13,0,0,1,4-.76A11.27,11.27,0,0,1,46.6,91.9a12,12,0,0,1,3.91,3.29,14.87,14.87,0,0,1,2.37,4.6A17.14,17.14,0,0,1,53.69,105Zm-11.18,0a4.83,4.83,0,0,0-1.15-3.19A4.16,4.16,0,0,0,38,100.47a4.5,4.5,0,0,0-4.7,4.54,4.62,4.62,0,0,0,1.28,3.29A4.45,4.45,0,0,0,38,109.66a4.18,4.18,0,0,0,3.35-1.33A5,5,0,0,0,42.51,105Z"/><path class="cls-1" d="M72.7,101.41a2.1,2.1,0,0,0-.86-1.86,3.88,3.88,0,0,0-2.27-.6,7.26,7.26,0,0,0-3.16.7,13,13,0,0,0-2.64,1.65l-6-6a17.4,17.4,0,0,1,6-3.7,19.67,19.67,0,0,1,7.1-1.31,16.4,16.4,0,0,1,6.48,1.1,9.85,9.85,0,0,1,4,3A11.61,11.61,0,0,1,83.44,99a23.78,23.78,0,0,1,.6,5.43v14.47H73.12v-2.19H73a5.72,5.72,0,0,1-3,2.25,11.38,11.38,0,0,1-3.76.68,12.55,12.55,0,0,1-3.32-.47,9.15,9.15,0,0,1-3.08-1.52,8.13,8.13,0,0,1-2.28-2.72,8.72,8.72,0,0,1-.88-4.12,7.06,7.06,0,0,1,1.49-4.68A10.16,10.16,0,0,1,62,103.26a18.27,18.27,0,0,1,5.15-1.38,42.55,42.55,0,0,1,5.56-.37Zm.11,6.06a13.24,13.24,0,0,0-4.29.57,2.14,2.14,0,0,0-1.62,2.14,1.66,1.66,0,0,0,.27,1,2.08,2.08,0,0,0,.67.65,3,3,0,0,0,.92.39,3.44,3.44,0,0,0,.91.13,3.65,3.65,0,0,0,2.77-1.09,3.92,3.92,0,0,0,1-2.82v-.94Z"/><path class="cls-1" d="M89,79.36h12.33v39.49H89Z"/><path class="cls-1" d="M106.87,79.36H119.2v39.49H106.87Z"/><path class="cls-1" d="M155,105a14.92,14.92,0,0,1-1.28,6.32,14,14,0,0,1-3.45,4.68,15,15,0,0,1-5,2.9,18.4,18.4,0,0,1-11.91,0,14.68,14.68,0,0,1-5-2.9,14,14,0,0,1-3.42-4.68,14.92,14.92,0,0,1-1.28-6.32,14.62,14.62,0,0,1,1.28-6.24,13.86,13.86,0,0,1,3.42-4.63,14.55,14.55,0,0,1,5-2.84,18.76,18.76,0,0,1,11.91,0,14.87,14.87,0,0,1,5,2.84,13.94,13.94,0,0,1,3.45,4.63A14.62,14.62,0,0,1,155,105Zm-15.73-4.49a4.11,4.11,0,0,0-3.21,1.36,4.57,4.57,0,0,0-1.23,3.18,4.65,4.65,0,0,0,1.26,3.29,4.53,4.53,0,0,0,6.47,0,4.65,4.65,0,0,0,1.26-3.29,4.48,4.48,0,0,0-1.28-3.18A4.3,4.3,0,0,0,139.26,100.52Z"/><path class="cls-1" d="M171.39,119.59c-3.69,0-6.42-.8-8.2-2.38s-2.66-4-2.66-7.39V100h-3.87V91.37h3.81V85.21h11.71v6.16h5.95V100h-5.95v7.32A3.34,3.34,0,0,0,173,110a3.63,3.63,0,0,0,2.38.7,7.28,7.28,0,0,0,1.2-.1,9,9,0,0,0,1-.21v8.26a11.54,11.54,0,0,1-2.64.68A24,24,0,0,1,171.39,119.59Z"/><path class="cls-1" d="M125,61.51h-9.67l7.38-24L95.64,29,84.91,61.51H75.05v3H125ZM97.56,32.75l21.36,6.68-6.78,22.08H88.07Z"/><path class="cls-1" d="M79.13,134h3.55l15.57,37H94.38l-4-9.82H70.77L66.59,171H63Zm1.62,3.76L72.13,158h17Z"/><path class="cls-1" d="M103.58,134h10.66a19.47,19.47,0,0,1,4.05.45,11.37,11.37,0,0,1,3.86,1.54,8.64,8.64,0,0,1,2.88,3,9.39,9.39,0,0,1,1.12,4.78,9.75,9.75,0,0,1-.91,4.34,8.53,8.53,0,0,1-2.46,3,10.62,10.62,0,0,1-3.55,1.75,15,15,0,0,1-4.21.58h-8V171h-3.45ZM107,150.3h7.83a12.07,12.07,0,0,0,2.88-.34,7.3,7.3,0,0,0,2.51-1.1,5.58,5.58,0,0,0,1.77-2,6.41,6.41,0,0,0,.68-3.08,6.11,6.11,0,0,0-.7-3,6.27,6.27,0,0,0-1.83-2.06,7.58,7.58,0,0,0-2.59-1.18,12.16,12.16,0,0,0-2.92-.36H107Z"/><path class="cls-1" d="M133.57,134H137v37h-3.45Z"/></svg>