<?xml version="1.0" encoding="utf-8"?>
<!-- Generator: Adobe Illustrator 24.0.1, SVG Export Plug-In . SVG Version: 6.00 Build 0)  -->
<svg version="1.1" id="Layer_1" xmlns="http://www.w3.org/2000/svg" xmlns:xlink="http://www.w3.org/1999/xlink" x="0px" y="0px"
	 viewBox="0 0 227.4 30.5" style="enable-background:new 0 0 227.4 30.5;" xml:space="preserve">
<style type="text/css">
	.st0{fill:#005ea2;}
</style>
<g>
	<g>
		<path class="st0" d="M71.1,19.3c0,1.4-0.2,2.7-0.6,4s-1,2.5-1.8,3.5s-1.8,1.9-2.9,2.5c-1.2,0.7-2.5,1-4.1,1
			c-1.3,0-2.5-0.2-3.6-0.7c-1.2-0.5-2-1.1-2.6-2h-0.1v2.2h-8.2V0h9.1v10.7h0.1c0.6-0.7,1.4-1.3,2.4-1.6c1-0.4,2-0.6,3-0.6
			c1.5,0,2.9,0.3,4.1,0.9s2.2,1.5,2.9,2.5c0.7,1,1.4,2.2,1.8,3.5C70.9,16.7,71.1,18,71.1,19.3z M62.7,19.3c0-0.9-0.3-1.7-0.9-2.4
			s-1.4-1-2.5-1s-1.9,0.3-2.6,1c-0.6,0.7-1,1.5-1,2.4c0,1,0.3,1.8,1,2.5c0.6,0.7,1.5,1,2.6,1s1.9-0.3,2.5-1
			C62.4,21.2,62.7,20.3,62.7,19.3z"/>
		<path class="st0" d="M85.5,16.6c0-0.6-0.2-1.1-0.6-1.4c-0.4-0.3-1-0.5-1.7-0.5c-0.8,0-1.6,0.2-2.4,0.5c-0.7,0.4-1.4,0.8-2,1.2
			l-4.5-4.5c1.3-1.2,2.8-2.1,4.5-2.8c1.7-0.7,3.5-1,5.3-1c2,0,3.6,0.3,4.9,0.8c1.3,0.6,2.3,1.3,3,2.3s1.3,2.1,1.6,3.4
			c0.3,1.3,0.5,2.6,0.5,4.1v10.9h-8.2v-1.7h-0.2c-0.5,0.8-1.3,1.4-2.2,1.7c-1,0.3-1.9,0.5-2.8,0.5c-0.8,0-1.6-0.1-2.5-0.4
			c-0.9-0.2-1.6-0.6-2.3-1.1c-0.7-0.5-1.3-1.2-1.7-2c-0.4-0.8-0.7-1.9-0.7-3.1c0-1.4,0.4-2.6,1.1-3.5s1.7-1.6,2.9-2.1
			c1.2-0.5,2.4-0.9,3.9-1C82.7,16.8,84.1,16.7,85.5,16.6L85.5,16.6z M85.5,21.2c-1.3,0-2.4,0.1-3.2,0.4c-0.8,0.3-1.2,0.8-1.2,1.6
			c0,0.3,0.1,0.5,0.2,0.7s0.3,0.4,0.5,0.5s0.4,0.2,0.7,0.3c0.2,0.1,0.5,0.1,0.7,0.1c0.9,0,1.6-0.3,2.1-0.8c0.5-0.6,0.8-1.3,0.8-2.1
			v-0.7H85.5z"/>
		<path class="st0" d="M97.7,0h9.3v29.7h-9.3V0z"/>
		<path class="st0" d="M111.2,0h9.3v29.7h-9.3V0z"/>
		<path class="st0" d="M147.4,19.3c0,1.8-0.3,3.4-1,4.8c-0.6,1.4-1.5,2.6-2.6,3.5c-1.1,1-2.3,1.7-3.8,2.2c-1.4,0.5-2.9,0.7-4.5,0.7
			c-1.5,0-3-0.2-4.5-0.7c-1.4-0.5-2.7-1.2-3.8-2.2s-1.9-2.1-2.6-3.5c-0.6-1.4-1-3-1-4.8s0.3-3.3,1-4.7c0.6-1.4,1.5-2.5,2.6-3.5
			c1.1-0.9,2.3-1.7,3.8-2.1c1.4-0.5,2.9-0.7,4.5-0.7s3.1,0.2,4.5,0.7s2.7,1.2,3.8,2.1s2,2.1,2.6,3.5C147.1,16,147.4,17.6,147.4,19.3
			z M135.5,16c-1,0-1.8,0.3-2.4,1c-0.6,0.7-0.9,1.5-0.9,2.4c0,1,0.3,1.8,0.9,2.5c0.6,0.7,1.4,1,2.4,1s1.8-0.3,2.4-1
			c0.6-0.7,0.9-1.5,0.9-2.5c0-0.9-0.3-1.7-1-2.4C137.4,16.3,136.5,16,135.5,16z"/>
		<path class="st0" d="M159.7,30.3c-2.8,0-4.8-0.6-6.2-1.8c-1.3-1.2-2-3-2-5.6v-7.4h-2.9V9h2.9V4.4h8.8V9h4.5v6.5h-4.5V21
			c0,1,0.2,1.7,0.6,2c0.4,0.4,1,0.5,1.8,0.5c0.3,0,0.6,0,0.9-0.1c0.3-0.1,0.6-0.1,0.7-0.2v6.2c-0.5,0.2-1.1,0.4-2,0.5
			C161.6,30.3,160.7,30.3,159.7,30.3z"/>
		<path class="st0" d="M183.8,1.9h2.7l11.7,27.8h-2.9l-3-7.4h-14.7l-3.1,7.4h-2.8L183.8,1.9z M185.1,4.8l-6.5,15.3h12.8L185.1,4.8z"
			/>
		<path class="st0" d="M202.2,1.9h8c1,0,2,0.1,3,0.3c1.1,0.2,2,0.6,2.9,1.2s1.6,1.3,2.2,2.3c0.6,1,0.8,2.2,0.8,3.6
			c0,1.3-0.2,2.3-0.7,3.3c-0.5,0.9-1.1,1.7-1.8,2.3c-0.8,0.6-1.7,1-2.7,1.3s-2.1,0.4-3.2,0.4h-6v13.2h-2.6V1.9H202.2z M204.8,14.2
			h5.9c0.7,0,1.5-0.1,2.2-0.3s1.3-0.4,1.9-0.8c0.6-0.4,1-0.9,1.3-1.5s0.5-1.4,0.5-2.3s-0.2-1.7-0.5-2.3c-0.4-0.6-0.8-1.1-1.4-1.6
			c-0.6-0.4-1.2-0.7-1.9-0.9c-0.7-0.2-1.5-0.3-2.2-0.3h-5.7v10H204.8z"/>
		<path class="st0" d="M224.8,1.9h2.6v27.8h-2.6V1.9z"/>
	</g>
	<path class="st0" d="M37.6,28.2h-7.3l5.6-18.1L15.6,3.7L7.5,28.2H0v2.3h37.6C37.6,30.5,37.6,28.2,37.6,28.2z M16.9,6.6l16.1,5
		l-5.1,16.6H9.8L16.9,6.6z"/>
</g>
</svg>
