<svg id="Layer_1" data-name="Layer 1" xmlns="http://www.w3.org/2000/svg" viewBox="0 0 156.26 142"><defs><style>.cls-1{fill:#503e89;}</style></defs><title>ballotAPI-logo-stacked</title><path class="cls-1" d="M31.82,76A17.85,17.85,0,0,1,31,81.33,15,15,0,0,1,28.64,86a11.91,11.91,0,0,1-3.91,3.32,11.23,11.23,0,0,1-5.42,1.26,12.24,12.24,0,0,1-4.85-1A8,8,0,0,1,11,86.94h-.1v2.87H0V50.36H12.07V64.57h.06a7.67,7.67,0,0,1,3.18-2.17,11.67,11.67,0,0,1,9.42.5,12,12,0,0,1,3.91,3.29A15,15,0,0,1,31,70.79,17,17,0,0,1,31.82,76ZM20.64,76a4.83,4.83,0,0,0-1.15-3.19,4.14,4.14,0,0,0-3.36-1.34,4.5,4.5,0,0,0-4.7,4.3V76a4.58,4.58,0,0,0,1.28,3.29,4.44,4.44,0,0,0,3.42,1.36,4.16,4.16,0,0,0,3.35-1.33A5,5,0,0,0,20.64,76Z"/><path class="cls-1" d="M50.83,72.41A2.09,2.09,0,0,0,50,70.55,3.88,3.88,0,0,0,47.7,70a7.21,7.21,0,0,0-3.16.7A13.13,13.13,0,0,0,41.9,72.3l-6-6a17.43,17.43,0,0,1,6-3.7A19.59,19.59,0,0,1,49,61.29a16.48,16.48,0,0,1,6.48,1.1,9.81,9.81,0,0,1,4,3A11.57,11.57,0,0,1,61.57,70a23.6,23.6,0,0,1,.6,5.43V89.9H51.25V87.71h-.12a5.71,5.71,0,0,1-3,2.25,11.25,11.25,0,0,1-3.76.68,12.86,12.86,0,0,1-3.32-.47A9.15,9.15,0,0,1,38,88.65a8.19,8.19,0,0,1-2.28-2.72,8.65,8.65,0,0,1-.88-4.12,7.06,7.06,0,0,1,1.49-4.68,10.14,10.14,0,0,1,3.83-2.87,18.44,18.44,0,0,1,5.15-1.38,43,43,0,0,1,5.56-.37Zm.11,6.06a13.27,13.27,0,0,0-4.29.57A2.13,2.13,0,0,0,45,81.18a1.7,1.7,0,0,0,.27,1,2.08,2.08,0,0,0,.67.65,3,3,0,0,0,.92.39,3.51,3.51,0,0,0,.91.13,3.64,3.64,0,0,0,2.77-1.09,3.94,3.94,0,0,0,1-2.82V78.5Z"/><path class="cls-1" d="M67.13,50.36H79.46V89.85H67.13Z"/><path class="cls-1" d="M85,50.36H97.33V89.85H85Z"/><path class="cls-1" d="M133.13,76a15,15,0,0,1-1.28,6.32A14.1,14.1,0,0,1,128.4,87a14.93,14.93,0,0,1-5,2.9,18.41,18.41,0,0,1-11.91,0,14.77,14.77,0,0,1-5-2.9,14,14,0,0,1-3.42-4.68A15,15,0,0,1,101.79,76a14.57,14.57,0,0,1,1.28-6.24,13.82,13.82,0,0,1,3.42-4.63,14.45,14.45,0,0,1,5-2.84,18.81,18.81,0,0,1,11.91,0,14.88,14.88,0,0,1,5,2.84,13.91,13.91,0,0,1,3.45,4.63A14.57,14.57,0,0,1,133.13,76ZM117.4,71.51a4.09,4.09,0,0,0-3.21,1.36A4.57,4.57,0,0,0,113,76.05a4.62,4.62,0,0,0,1.26,3.29,4.52,4.52,0,0,0,6.41.06l.06-.06A4.62,4.62,0,0,0,122,76.05a4.49,4.49,0,0,0-1.28-3.18,4.31,4.31,0,0,0-3.28-1.35Z"/><path class="cls-1" d="M149.52,90.59c-3.69,0-6.42-.8-8.2-2.38s-2.66-4-2.66-7.39V71h-3.87V62.37h3.81V56.21h11.71v6.16h5.95V71h-5.95v7.32a3.36,3.36,0,0,0,.82,2.68,3.63,3.63,0,0,0,2.38.7,6.94,6.94,0,0,0,1.2-.1,8.45,8.45,0,0,0,1-.21v8.26a11.52,11.52,0,0,1-2.64.68A24.83,24.83,0,0,1,149.52,90.59Z"/><path class="cls-1" d="M103.13,32.51H93.46l7.38-24L73.77,0,63,32.51H53.18v3h49.95ZM75.69,3.75l21.36,6.68L90.27,32.51H66.2Z"/><path class="cls-1" d="M57.26,105h3.55l15.57,37H72.51l-4-9.82H48.9L44.72,142H41.13Zm1.62,3.76L50.26,129h17Z"/><path class="cls-1" d="M81.71,105H92.37a19.71,19.71,0,0,1,4,.45,11.25,11.25,0,0,1,3.86,1.54,8.62,8.62,0,0,1,2.88,3,9.39,9.39,0,0,1,1.12,4.78,9.84,9.84,0,0,1-.91,4.34,8.52,8.52,0,0,1-2.46,3,10.71,10.71,0,0,1-3.55,1.75,15,15,0,0,1-4.21.58h-8V142H81.7Zm3.42,16.3H93a12.13,12.13,0,0,0,2.88-.34,7.23,7.23,0,0,0,2.51-1.1,5.59,5.59,0,0,0,1.77-2,6.43,6.43,0,0,0,.68-3.08,6,6,0,0,0-.7-3,6.23,6.23,0,0,0-1.83-2.06,7.71,7.71,0,0,0-2.59-1.18,12,12,0,0,0-2.92-.36H85.13Z"/><path class="cls-1" d="M111.7,105h3.43v37h-3.45Z"/></svg>